# xmcd
#
# Track frame offsets:
#	150
#	15443
#	28878
#	42220
#	56988
#	74570
#	90183
#	112303
#	123398
#	138525
#	150666
#	163478
#	176385
#	187852
#
# Disc length: 2659 seconds
#
# Revision: 0
# Processed by: cddbd v1.5.1PL0 Copyright (c) Steve Scherf et al.
# Submitted via: EasyCDDAExtractor 7.1.3.1
#
DISCID=c20a610e
DTITLE=The Black Keys - Rubber Factory
DYEAR=2004
DGENRE=Blues
TTITLE0=When the Lights Go Out
TTITLE1=10 A.M. Automatic
TTITLE2=Just Couldn't Tie Me Down
TTITLE3=All Hands Against His Own
TTITLE4=The Desperate Man
TTITLE5=Girl Is on My Mind
TTITLE6=The Lengths
TTITLE7=Grown so Ugly
TTITLE8=Stack Shot Billy
TTITLE9=Act Nice and Gentle
TTITLE10=Aeroplane Blues
TTITLE11=Keep Me
TTITLE12=Till I Get My Way
TTITLE13=Summertime Blues
EXTD=
EXTT0=
EXTT1=
EXTT2=
EXTT3=
EXTT4=
EXTT5=
EXTT6=
EXTT7=
EXTT8=
EXTT9=
EXTT10=
EXTT11=
EXTT12=
EXTT13=Bonus Track for Japan Only
PLAYORDER=
